<?xml version="1.0" encoding="UTF-8"?>
<svg width="24px" height="24px" viewBox="0 0 24 24" version="1.1" xmlns="http://www.w3.org/2000/svg">
    <g stroke="none" stroke-width="1" fill="none" fill-rule="evenodd">
        <circle fill="#FFFFFF" cx="12" cy="12" r="11"/>
        <path d="M12,1 C5.925,1 1,5.925 1,12 C1,18.075 5.925,23 12,23 C18.075,23 23,18.075 23,12 C23,5.925 18.075,1 12,1 Z M12,21 C6.486,21 2,16.514 2,12 C2,7.486 6.486,3 12,3 C17.514,3 22,7.486 22,12 C22,16.514 17.514,21 12,21 Z" fill="#2563EB"/>
        <path d="M12,1 L12,23" stroke="#2563EB" stroke-width="1.5"/>
        <path d="M1,12 L23,12" stroke="#2563EB" stroke-width="1.5"/>
        <path d="M3.5,3.5 L20.5,20.5" stroke="#2563EB" stroke-width="1.5"/>
        <path d="M3.5,20.5 L20.5,3.5" stroke="#2563EB" stroke-width="1.5"/>
    </g>
</svg> 